<svg xmlns="http://www.w3.org/2000/svg" width="553.487" height="743.15" viewBox="0 0 553.487 743.15">
  <g id="Diagram" transform="translate(-27.814 -22.66)">
    <rect id="Rectangle_639" data-name="Rectangle 639" width="184.767" height="91.284" transform="translate(28.813 123.755)" fill="#30ba78"/>
    <text id="Host_OS" data-name="Host OS" transform="translate(90.916 173.01)" fill="#fff" font-size="15" font-family="Poppins-SemiBold, Poppins" font-weight="600"><tspan x="0" y="0">Host OS</tspan></text>
    <rect id="Rectangle_640" data-name="Rectangle 640" width="184.767" height="91.284" transform="translate(28.813 221.295)" fill="#fe7c3f"/>
    <text id="Host_Console" data-name="Host Console" transform="translate(73.821 270.551)" fill="#fff" font-size="15" font-family="Poppins-SemiBold, Poppins" font-weight="600"><tspan x="0" y="0">Host Console</tspan></text>
    <rect id="Rectangle_641" data-name="Rectangle 641" width="184.767" height="91.284" transform="translate(395.586 123.755)" fill="#30ba78"/>
    <text id="Host_OS-2" data-name="Host OS" transform="translate(457.689 173.01)" fill="#fff" font-size="15" font-family="Poppins-SemiBold, Poppins" font-weight="600"><tspan x="0" y="0">Host OS</tspan></text>
    <rect id="Rectangle_642" data-name="Rectangle 642" width="184.767" height="91.284" transform="translate(395.586 221.295)" fill="#fe7c3f"/>
    <text id="Host_Console-2" data-name="Host Console" transform="translate(440.594 270.551)" fill="#fff" font-size="15" font-family="Poppins-SemiBold, Poppins" font-weight="600"><tspan x="0" y="0">Host Console</tspan></text>
    <rect id="Rectangle_643" data-name="Rectangle 643" width="549.359" height="91.284" transform="translate(30.807 320.078)" fill="#fff" stroke="#2453ff" stroke-miterlimit="10" stroke-width="2.271"/>
    <text id="Ceph" transform="translate(310.488 369.334)" fill="#2453ff" font-size="15" font-family="Poppins-SemiBold, Poppins" font-weight="600"><tspan x="0" y="0">Ceph</tspan></text>
    <rect id="Rectangle_644" data-name="Rectangle 644" width="551.579" height="91.284" transform="translate(29.253 418.589)" fill="#2453ff"/>
    <g id="Group" transform="translate(64.259 444.284)">
      <text id="Simplified_" data-name="Simplified " transform="translate(0 16)" fill="#fff" font-size="15" font-family="Poppins-SemiBold, Poppins" font-weight="600"><tspan x="0" y="0">Simplified </tspan></text>
      <text id="Mgmt" transform="translate(0 35.647)" fill="#fff" font-size="15" font-family="Poppins-SemiBold, Poppins" font-weight="600"><tspan x="0" y="0">Mgmt</tspan></text>
    </g>
    <rect id="Rectangle_645" data-name="Rectangle 645" width="77.706" height="38.391" transform="translate(30.7 514.853)" fill="#fff" stroke="#666" stroke-miterlimit="10" stroke-width="2"/>
    <text id="NFS" transform="translate(53.247 537.87)" fill="#666" font-size="14" font-family="Poppins-SemiBold, Poppins" font-weight="600"><tspan x="0" y="0">NFS</tspan></text>
    <rect id="Rectangle_646" data-name="Rectangle 646" width="77.706" height="38.391" transform="translate(113.068 514.853)" fill="#fff" stroke="#666" stroke-miterlimit="10" stroke-width="2"/>
    <text id="iSCSI" transform="translate(130.953 538.87)" fill="#666" font-size="15" font-family="Poppins-SemiBold, Poppins" font-weight="600"><tspan x="0" y="0">iSCSI</tspan></text>
    <rect id="Rectangle_647" data-name="Rectangle 647" width="184.767" height="91.284" transform="translate(28.814 23.66)" fill="none" stroke="#666" stroke-miterlimit="10" stroke-width="2" stroke-dasharray="6"/>
    <text id="Node_1" data-name="Node 1" transform="translate(92.848 72.916)" fill="#666" font-size="15" font-family="Poppins-SemiBold, Poppins" font-weight="600"><tspan x="0" y="0">Node 1</tspan></text>
    <rect id="Rectangle_648" data-name="Rectangle 648" width="184.767" height="91.284" transform="translate(392.902 23.726)" fill="none" stroke="#666" stroke-miterlimit="10" stroke-width="2" stroke-dasharray="6"/>
    <text id="Node_N" data-name="Node N" transform="translate(456.936 72.982)" fill="#666" font-size="15" font-family="Poppins-SemiBold, Poppins" font-weight="600"><tspan x="0" y="0">Node N</tspan></text>
    <rect id="Rectangle_649" data-name="Rectangle 649" width="34.017" height="22.678" transform="translate(91.471 634.491)" fill="#666"/>
    <rect id="Rectangle_650" data-name="Rectangle 650" width="34.017" height="22.678" transform="translate(130.023 634.491)" fill="#666"/>
    <rect id="Rectangle_651" data-name="Rectangle 651" width="34.017" height="22.678" transform="translate(168.575 634.491)" fill="#666"/>
    <rect id="Rectangle_652" data-name="Rectangle 652" width="34.017" height="22.678" transform="translate(90.821 670.898)" fill="#666"/>
    <rect id="Rectangle_653" data-name="Rectangle 653" width="34.017" height="22.678" transform="translate(129.373 670.898)" fill="#666"/>
    <rect id="Rectangle_654" data-name="Rectangle 654" width="34.017" height="22.678" transform="translate(167.925 670.898)" fill="#666"/>
    <rect id="Rectangle_655" data-name="Rectangle 655" width="34.017" height="22.678" transform="translate(91.798 704.614)" fill="#666"/>
    <rect id="Rectangle_656" data-name="Rectangle 656" width="34.017" height="22.678" transform="translate(130.35 704.614)" fill="#666"/>
    <rect id="Rectangle_657" data-name="Rectangle 657" width="34.017" height="22.678" transform="translate(168.902 704.614)" fill="#666"/>
    <text id="disk" transform="translate(175.859 718.397)" fill="#fff" font-size="8" font-family="Poppins-Regular, Poppins" letter-spacing="-0.002em"><tspan x="0" y="0">dis</tspan><tspan y="0" letter-spacing="-0.025em">k</tspan></text>
    <text id="disk-2" data-name="disk" transform="translate(174.876 684.374)" fill="#fff" font-size="8" font-family="Poppins-Regular, Poppins" letter-spacing="-0.002em"><tspan x="0" y="0">dis</tspan><tspan y="0" letter-spacing="-0.025em">k</tspan></text>
    <text id="disk-3" data-name="disk" transform="translate(174.999 646.912)" fill="#fff" font-size="8" font-family="Poppins-Regular, Poppins" letter-spacing="-0.002em"><tspan x="0" y="0">dis</tspan><tspan y="0" letter-spacing="-0.025em">k</tspan></text>
    <text id="disk-4" data-name="disk" transform="translate(138.56 718.397)" fill="#fff" font-size="8" font-family="Poppins-Regular, Poppins" letter-spacing="-0.002em"><tspan x="0" y="0">dis</tspan><tspan y="0" letter-spacing="-0.025em">k</tspan></text>
    <text id="disk-5" data-name="disk" transform="translate(137.577 684.374)" fill="#fff" font-size="8" font-family="Poppins-Regular, Poppins" letter-spacing="-0.002em"><tspan x="0" y="0">dis</tspan><tspan y="0" letter-spacing="-0.025em">k</tspan></text>
    <text id="disk-6" data-name="disk" transform="translate(137.7 646.912)" fill="#fff" font-size="8" font-family="Poppins-Regular, Poppins" letter-spacing="-0.002em"><tspan x="0" y="0">dis</tspan><tspan y="0" letter-spacing="-0.025em">k</tspan></text>
    <text id="disk-7" data-name="disk" transform="translate(98.152 718.397)" fill="#fff" font-size="8" font-family="Poppins-Regular, Poppins" letter-spacing="-0.002em"><tspan x="0" y="0">dis</tspan><tspan y="0" letter-spacing="-0.025em">k</tspan></text>
    <text id="Storage_Node_1" data-name="Storage Node 1" transform="translate(87.786 613.52)" fill="#666" font-size="15" font-family="Poppins-SemiBold, Poppins" font-weight="600"><tspan x="0" y="0">Storage Node 1</tspan></text>
    <text id="disk-8" data-name="disk" transform="translate(97.17 684.374)" fill="#fff" font-size="8" font-family="Poppins-Regular, Poppins" letter-spacing="-0.002em"><tspan x="0" y="0">dis</tspan><tspan y="0" letter-spacing="-0.025em">k</tspan></text>
    <text id="disk-9" data-name="disk" transform="translate(97.293 646.912)" fill="#fff" font-size="8" font-family="Poppins-Regular, Poppins" letter-spacing="-0.002em"><tspan x="0" y="0">dis</tspan><tspan y="0" letter-spacing="-0.025em">k</tspan></text>
    <path id="Path_1345" data-name="Path 1345" d="M209.913,257.455c-.882-.472-1.394-1-1.507-1.583a2.335,2.335,0,0,1,.764-1.9,9.409,9.409,0,0,0-7.1-15.581h-.084a9.409,9.409,0,0,0-7.1,15.581,2.326,2.326,0,0,1,.772,1.877c-.108.577-.616,1.117-1.511,1.606a13.127,13.127,0,0,1-3.336-4.206,12.432,12.432,0,0,1,11.181-17.887h.084a12.436,12.436,0,0,1,11.176,17.887,13.265,13.265,0,0,1-3.337,4.207m-4.6,2.328a4.58,4.58,0,0,1-1.12-1.125,5.093,5.093,0,0,1-.976-3.11,6.872,6.872,0,0,1,.509-2.465,7,7,0,0,1,1.353-2.114l0-.005.128-.149a5.692,5.692,0,0,0,.626-.823,4.261,4.261,0,0,0,.481-1.18,4.378,4.378,0,0,0-4.258-5.394h-.089a4.377,4.377,0,0,0-4.257,5.394,4.281,4.281,0,0,0,.48,1.18,5.859,5.859,0,0,0,.627.823l.128.149,0,.006a6.974,6.974,0,0,1,1.354,2.114,6.855,6.855,0,0,1,.508,2.465,5.093,5.093,0,0,1-.976,3.11,4.724,4.724,0,0,1-1.12,1.125l-.721-.217a12.844,12.844,0,0,1-2.072-.913,3.531,3.531,0,0,0,1.859-3.107,3.73,3.73,0,0,0-.994-2.454l-.028-.029-.2-.216-.529-.621a7.41,7.41,0,0,1,4.9-11.761,7.3,7.3,0,0,1,1.044-.073h.094a7.416,7.416,0,0,1,7.209,9.128,7.424,7.424,0,0,1-1.27,2.711c-.165.221-.34.412-.529.621l-.191.211a.194.194,0,0,0-.033.035,3.764,3.764,0,0,0-.994,2.453,3.535,3.535,0,0,0,1.861,3.107,12.411,12.411,0,0,1-2.072.913l-.717.217m-3.307-9.416a2.455,2.455,0,1,1,2.455-2.455,2.456,2.456,0,0,1-2.455,2.455" transform="translate(89.068 117.308)" fill="#f0424d"/>
    <path id="Path_1346" data-name="Path 1346" d="M135.167,305.556a2.4,2.4,0,1,0,1.39,2.174,2.4,2.4,0,0,0-1.39-2.174Z" transform="translate(57.048 156.082)" fill="#fff"/>
    <path id="Path_1347" data-name="Path 1347" d="M131.495,305.556a2.4,2.4,0,1,0,1.39,2.174,2.4,2.4,0,0,0-1.39-2.174Z" transform="translate(55.013 156.082)" fill="#fff"/>
    <path id="Path_1348" data-name="Path 1348" d="M158.306,315.234a4.747,4.747,0,0,0-6.086-.672c-2.162,1.513-2.4,4.257-2.225,6.291.02.234.045.472.068.7l0,.02a6.088,6.088,0,0,1-.145,3.088,1.841,1.841,0,0,1-1.156.847,1.371,1.371,0,0,1-1.081-.1,1.623,1.623,0,0,1-.854-1.576,3.292,3.292,0,0,1,.506-1.369l.015-.019a18.02,18.02,0,0,0,2.933-13.459l-.026-.129h-.008a11.709,11.709,0,0,0-23.143,1.045,18.093,18.093,0,0,0,3.084,12.545l.014.02a3.288,3.288,0,0,1,.5,1.368,1.623,1.623,0,0,1-.854,1.574,1.373,1.373,0,0,1-1.082.1,1.839,1.839,0,0,1-1.155-.848,6.087,6.087,0,0,1-.145-3.087c.025-.244.049-.483.07-.723.323-3.687-1.031-5.456-2.224-6.292a4.647,4.647,0,0,0-6.206,6.793,1.962,1.962,0,1,0,3-2.531.715.715,0,0,1,.956-1.047c.468.328.685,1.375.566,2.734-.019.213-.04.425-.063.649l0,.018a9.186,9.186,0,0,0,.554,5.27,5.836,5.836,0,0,0,5.1,3.048,5.033,5.033,0,0,0,2.8-.822,5.5,5.5,0,0,0,2.591-4.138,6.788,6.788,0,0,0-1.194-4.315.908.908,0,0,0-.064-.085,14.005,14.005,0,0,1-2.253-10.421,8.607,8.607,0,0,1,.207-.86h-.011a7.708,7.708,0,0,1,15.119.86h0a13.455,13.455,0,0,1,.188,1.372h0a14.119,14.119,0,0,1-2.442,9.05.873.873,0,0,0-.063.084,6.787,6.787,0,0,0-1.194,4.315,5.5,5.5,0,0,0,2.591,4.138,5.032,5.032,0,0,0,2.8.822,5.836,5.836,0,0,0,5.1-3.048,9.2,9.2,0,0,0,.554-5.273v-.011c-.023-.226-.045-.439-.064-.653-.119-1.359.1-2.406.565-2.734a.715.715,0,0,1,.956,1.047,1.962,1.962,0,1,0,2.981,2.553l.018-.021a4.748,4.748,0,0,0-.119-6.122Z" transform="translate(49.45 152.783)" fill="#fff"/>
    <path id="Path_1349" data-name="Path 1349" d="M277.975,304.115a2.4,2.4,0,1,0,1.39,2.174,2.4,2.4,0,0,0-1.39-2.174Z" transform="translate(136.181 155.284)" fill="#fff"/>
    <path id="Path_1350" data-name="Path 1350" d="M274.3,304.115a2.4,2.4,0,1,0,1.39,2.174,2.4,2.4,0,0,0-1.39-2.174Z" transform="translate(134.146 155.284)" fill="#fff"/>
    <path id="Path_1351" data-name="Path 1351" d="M301.114,313.793a4.747,4.747,0,0,0-6.086-.672c-2.162,1.513-2.4,4.257-2.225,6.291.02.234.045.472.068.7l0,.02a6.088,6.088,0,0,1-.145,3.089,1.84,1.84,0,0,1-1.156.847,1.371,1.371,0,0,1-1.081-.1,1.623,1.623,0,0,1-.854-1.576,3.292,3.292,0,0,1,.506-1.369l.015-.019a18.02,18.02,0,0,0,2.933-13.459l-.026-.129h-.008a11.709,11.709,0,0,0-23.143,1.045A18.094,18.094,0,0,0,273,321.006l.014.019a3.289,3.289,0,0,1,.5,1.368,1.624,1.624,0,0,1-.854,1.574,1.373,1.373,0,0,1-1.082.1,1.839,1.839,0,0,1-1.155-.848,6.088,6.088,0,0,1-.145-3.087c.025-.244.049-.483.07-.723.323-3.687-1.031-5.456-2.224-6.292a4.647,4.647,0,0,0-6.206,6.793,1.962,1.962,0,0,0,3-2.532.715.715,0,0,1,.956-1.047c.468.328.685,1.375.566,2.734-.019.213-.04.425-.063.649l0,.018a9.186,9.186,0,0,0,.554,5.27,5.836,5.836,0,0,0,5.1,3.048,5.033,5.033,0,0,0,2.8-.822,5.5,5.5,0,0,0,2.591-4.138,6.788,6.788,0,0,0-1.194-4.315.913.913,0,0,0-.064-.085,14.006,14.006,0,0,1-2.253-10.421,8.609,8.609,0,0,1,.207-.86h-.011a7.708,7.708,0,0,1,15.119.86h0a13.476,13.476,0,0,1,.188,1.372h0a14.119,14.119,0,0,1-2.442,9.05.873.873,0,0,0-.063.084,6.787,6.787,0,0,0-1.194,4.315,5.5,5.5,0,0,0,2.591,4.138,5.032,5.032,0,0,0,2.8.822,5.836,5.836,0,0,0,5.1-3.048,9.2,9.2,0,0,0,.553-5.273v-.011c-.023-.226-.045-.439-.064-.653-.119-1.359.1-2.406.565-2.734a.715.715,0,0,1,.956,1.047,1.962,1.962,0,1,0,2.981,2.553l.018-.021a4.748,4.748,0,0,0-.119-6.122Z" transform="translate(128.583 151.984)" fill="#fff"/>
    <path id="Path_1352" data-name="Path 1352" d="M348.162,293.785a2.4,2.4,0,1,0,1.39,2.174,2.4,2.4,0,0,0-1.39-2.174Z" transform="translate(175.073 149.56)" fill="#fff"/>
    <path id="Path_1353" data-name="Path 1353" d="M344.49,293.785a2.4,2.4,0,1,0,1.39,2.174,2.4,2.4,0,0,0-1.39-2.174Z" transform="translate(173.038 149.56)" fill="#fff"/>
    <path id="Path_1354" data-name="Path 1354" d="M371.3,303.463a4.747,4.747,0,0,0-6.086-.672c-2.162,1.513-2.4,4.257-2.225,6.291.02.234.045.472.068.7l0,.02a6.087,6.087,0,0,1-.145,3.088,1.84,1.84,0,0,1-1.156.847,1.371,1.371,0,0,1-1.081-.1,1.623,1.623,0,0,1-.854-1.576,3.293,3.293,0,0,1,.506-1.369l.015-.02a18.019,18.019,0,0,0,2.933-13.459l-.026-.129h-.008a11.709,11.709,0,0,0-23.143,1.046,18.094,18.094,0,0,0,3.084,12.545l.014.019a3.289,3.289,0,0,1,.5,1.368,1.624,1.624,0,0,1-.854,1.574,1.374,1.374,0,0,1-1.082.1,1.839,1.839,0,0,1-1.155-.848,6.088,6.088,0,0,1-.145-3.087c.025-.244.049-.483.07-.723.323-3.687-1.031-5.456-2.224-6.292a4.647,4.647,0,0,0-6.206,6.793,1.962,1.962,0,1,0,3-2.532.715.715,0,0,1,.956-1.047c.468.328.685,1.375.566,2.734-.019.213-.04.425-.063.649l0,.018a9.188,9.188,0,0,0,.554,5.27,5.836,5.836,0,0,0,5.1,3.048,5.032,5.032,0,0,0,2.8-.822,5.5,5.5,0,0,0,2.591-4.138,6.788,6.788,0,0,0-1.194-4.315.9.9,0,0,0-.064-.085,14.006,14.006,0,0,1-2.253-10.421,8.575,8.575,0,0,1,.207-.86H344.3a7.708,7.708,0,0,1,15.12.86h0a13.453,13.453,0,0,1,.188,1.372h0a14.12,14.12,0,0,1-2.442,9.05.869.869,0,0,0-.063.084,6.787,6.787,0,0,0-1.194,4.315A5.5,5.5,0,0,0,358.5,316.9a5.032,5.032,0,0,0,2.8.822,5.836,5.836,0,0,0,5.1-3.048,9.2,9.2,0,0,0,.554-5.273v-.011c-.023-.226-.045-.439-.064-.653-.119-1.359.1-2.406.565-2.734a.715.715,0,0,1,.956,1.047,1.962,1.962,0,0,0,2.981,2.553l.018-.021a4.747,4.747,0,0,0-.119-6.122Z" transform="translate(167.475 146.26)" fill="#fff"/>
    <line id="Line_461" data-name="Line 461" x2="0.177" y2="80.814" transform="translate(275.937 423.408)" fill="none" stroke="#fff" stroke-miterlimit="10" stroke-width="2.687"/>
    <line id="Line_462" data-name="Line 462" y2="80.814" transform="translate(455.074 422.783)" fill="none" stroke="#fff" stroke-miterlimit="10" stroke-width="2.815"/>
    <g id="Group-2" data-name="Group" transform="translate(289.299 442.423)">
      <text id="Support_" data-name="Support " transform="translate(0 16)" fill="#fff" font-size="15" font-family="Poppins-SemiBold, Poppins" font-weight="600"><tspan x="0" y="0">Support </tspan></text>
      <text id="Diagnostic" transform="translate(0 35.647)" fill="#fff" font-size="15" font-family="Poppins-SemiBold, Poppins" font-weight="600"><tspan x="0" y="0">Diagnostic</tspan></text>
    </g>
    <text id="WOD" transform="translate(498.854 481.445)" fill="#fff" font-size="14" font-family="Poppins-SemiBold, Poppins" font-weight="600"><tspan x="0" y="0">WOD</tspan></text>
    <rect id="Rectangle_658" data-name="Rectangle 658" width="77.706" height="38.391" transform="translate(195.437 514.853)" fill="#fff" stroke="#666" stroke-miterlimit="10" stroke-width="2"/>
    <text id="S3" transform="translate(221.092 537.87)" fill="#666" font-size="14" font-family="Poppins-SemiBold, Poppins" font-weight="600"><tspan x="0" y="0">S3</tspan></text>
    <line id="Line_463" data-name="Line 463" x2="153.679" transform="translate(226.975 67.228)" fill="#efefef" stroke="#666" stroke-miterlimit="10" stroke-width="2" stroke-dasharray="6"/>
    <line id="Line_464" data-name="Line 464" x2="62.982" transform="translate(274.309 662.458)" fill="none" stroke="#666" stroke-miterlimit="10" stroke-width="2" stroke-dasharray="6"/>
    <rect id="Rectangle_659" data-name="Rectangle 659" width="239.866" height="199.038" transform="translate(30.816 565.651)" fill="none" stroke="#666" stroke-miterlimit="10" stroke-width="2.243" stroke-dasharray="6.73"/>
    <rect id="Rectangle_660" data-name="Rectangle 660" width="34.017" height="22.678" transform="translate(399.187 634.491)" fill="#666"/>
    <rect id="Rectangle_661" data-name="Rectangle 661" width="34.017" height="22.678" transform="translate(437.739 634.491)" fill="#666"/>
    <rect id="Rectangle_662" data-name="Rectangle 662" width="34.017" height="22.678" transform="translate(476.292 634.491)" fill="#666"/>
    <rect id="Rectangle_663" data-name="Rectangle 663" width="34.017" height="22.678" transform="translate(398.537 670.898)" fill="#666"/>
    <rect id="Rectangle_664" data-name="Rectangle 664" width="34.017" height="22.678" transform="translate(437.089 670.898)" fill="#666"/>
    <rect id="Rectangle_665" data-name="Rectangle 665" width="34.017" height="22.678" transform="translate(475.642 670.898)" fill="#666"/>
    <rect id="Rectangle_666" data-name="Rectangle 666" width="34.017" height="22.678" transform="translate(399.514 704.614)" fill="#666"/>
    <rect id="Rectangle_667" data-name="Rectangle 667" width="34.017" height="22.678" transform="translate(438.067 704.614)" fill="#666"/>
    <rect id="Rectangle_668" data-name="Rectangle 668" width="34.017" height="22.678" transform="translate(476.619 704.614)" fill="#666"/>
    <text id="disk-10" data-name="disk" transform="translate(483.575 718.397)" fill="#fff" font-size="8" font-family="Poppins-Regular, Poppins" letter-spacing="-0.002em"><tspan x="0" y="0">dis</tspan><tspan y="0" letter-spacing="-0.025em">k</tspan></text>
    <text id="disk-11" data-name="disk" transform="translate(482.592 684.374)" fill="#fff" font-size="8" font-family="Poppins-Regular, Poppins" letter-spacing="-0.002em"><tspan x="0" y="0">dis</tspan><tspan y="0" letter-spacing="-0.025em">k</tspan></text>
    <text id="disk-12" data-name="disk" transform="translate(482.715 646.912)" fill="#fff" font-size="8" font-family="Poppins-Regular, Poppins" letter-spacing="-0.002em"><tspan x="0" y="0">dis</tspan><tspan y="0" letter-spacing="-0.025em">k</tspan></text>
    <text id="disk-13" data-name="disk" transform="translate(446.276 718.397)" fill="#fff" font-size="8" font-family="Poppins-Regular, Poppins" letter-spacing="-0.002em"><tspan x="0" y="0">dis</tspan><tspan y="0" letter-spacing="-0.025em">k</tspan></text>
    <text id="disk-14" data-name="disk" transform="translate(445.293 684.374)" fill="#fff" font-size="8" font-family="Poppins-Regular, Poppins" letter-spacing="-0.002em"><tspan x="0" y="0">dis</tspan><tspan y="0" letter-spacing="-0.025em">k</tspan></text>
    <text id="disk-15" data-name="disk" transform="translate(445.416 646.912)" fill="#fff" font-size="8" font-family="Poppins-Regular, Poppins" letter-spacing="-0.002em"><tspan x="0" y="0">dis</tspan><tspan y="0" letter-spacing="-0.025em">k</tspan></text>
    <text id="disk-16" data-name="disk" transform="translate(405.869 718.397)" fill="#fff" font-size="8" font-family="Poppins-Regular, Poppins" letter-spacing="-0.002em"><tspan x="0" y="0">dis</tspan><tspan y="0" letter-spacing="-0.025em">k</tspan></text>
    <text id="Storage_Node_N" data-name="Storage Node N" transform="translate(392.394 613.52)" fill="#666" font-size="15" font-family="Poppins-SemiBold, Poppins" font-weight="600"><tspan x="0" y="0">Storage Node N</tspan></text>
    <text id="disk-17" data-name="disk" transform="translate(404.886 684.374)" fill="#fff" font-size="8" font-family="Poppins-Regular, Poppins" letter-spacing="-0.002em"><tspan x="0" y="0">dis</tspan><tspan y="0" letter-spacing="-0.025em">k</tspan></text>
    <text id="disk-18" data-name="disk" transform="translate(405.009 646.912)" fill="#fff" font-size="8" font-family="Poppins-Regular, Poppins" letter-spacing="-0.002em"><tspan x="0" y="0">dis</tspan><tspan y="0" letter-spacing="-0.025em">k</tspan></text>
    <rect id="Rectangle_669" data-name="Rectangle 669" width="239.866" height="199.038" transform="translate(338.532 565.651)" fill="none" stroke="#666" stroke-miterlimit="10" stroke-width="2.243" stroke-dasharray="6.73"/>
  </g>
</svg>
