<svg xmlns="http://www.w3.org/2000/svg" xmlns:xlink="http://www.w3.org/1999/xlink" width="340.561" height="141.818" viewBox="0 0 340.561 141.818">
  <defs>
    <radialGradient id="radial-gradient" cx="0.559" cy="1.139" r="0.589" gradientTransform="matrix(0.036, -0.999, 2.374, 0.086, -2.164, 1.6)" gradientUnits="objectBoundingBox">
      <stop offset="0" stop-color="#ff3"/>
      <stop offset="1" stop-color="#ff3"/>
    </radialGradient>
  </defs>
  <path id="Union_1" data-name="Union 1" d="M214.844,1362.325a25.709,25.709,0,0,1-4.655-1.336,25.439,25.439,0,0,1-3.981-2q-1.876-1.161-3.865-2.556l4.45-6.5a46.612,46.612,0,0,0,6.646,3.8,16.771,16.771,0,0,0,7.171,1.6,11.4,11.4,0,0,0,3.513-.492,8.906,8.906,0,0,0,2.576-1.277,5.272,5.272,0,0,0,1.58-1.8,4.319,4.319,0,0,0,.527-2,3.188,3.188,0,0,0-.79-2.177,5.962,5.962,0,0,0-2.107-1.481,17.465,17.465,0,0,0-3.1-.987q-1.789-.4-3.719-.755-1.289-.23-2.985-.551a32.627,32.627,0,0,1-3.513-.871,21.584,21.584,0,0,1-3.571-1.451,13.079,13.079,0,0,1-3.162-2.264,10.431,10.431,0,0,1-2.253-3.252,10.73,10.73,0,0,1-.849-4.441,11.042,11.042,0,0,1,5.415-10.073,16.44,16.44,0,0,1,5.27-2,28.471,28.471,0,0,1,5.591-.581,29.632,29.632,0,0,1,4.8.349,21.573,21.573,0,0,1,3.923,1.016,21.99,21.99,0,0,1,3.542,1.685q1.727,1.016,3.719,2.409l-4.567,6.385a29.571,29.571,0,0,0-5.856-3.193,16.063,16.063,0,0,0-5.913-1.1,12.8,12.8,0,0,0-2.4.261,10.394,10.394,0,0,0-2.547.842,6.2,6.2,0,0,0-1.991,1.481,3.186,3.186,0,0,0-.79,2.177,2.816,2.816,0,0,0,.936,2.148,7.577,7.577,0,0,0,2.4,1.451,22.054,22.054,0,0,0,3.218.987q1.758.408,3.4.814,1.231.292,2.9.58a31.653,31.653,0,0,1,3.454.813,21.59,21.59,0,0,1,3.542,1.393,11.99,11.99,0,0,1,3.133,2.235,10.379,10.379,0,0,1,2.224,3.367,12.418,12.418,0,0,1,.849,4.848,13.15,13.15,0,0,1-1.171,5.747,10.7,10.7,0,0,1-3.337,4.035,15.387,15.387,0,0,1-5.153,2.409,25.17,25.17,0,0,1-6.616.814A31.309,31.309,0,0,1,214.844,1362.325Zm-44.29-.843a16.623,16.623,0,0,1-5.8-3.6,15.9,15.9,0,0,1-3.717-5.632,19.779,19.779,0,0,1-1.318-7.373v-25.313h8.2v25.272a11.678,11.678,0,0,0,1.053,5.275,9.621,9.621,0,0,0,2.606,3.3,9.008,9.008,0,0,0,3.337,1.68,11.211,11.211,0,0,0,6.381,0,9.029,9.029,0,0,0,3.337-1.68,9.637,9.637,0,0,0,2.606-3.3,11.678,11.678,0,0,0,1.053-5.275v-25.272h8.2v25.313a20.2,20.2,0,0,1-1.288,7.373,15.606,15.606,0,0,1-3.69,5.632,16.642,16.642,0,0,1-5.8,3.6,23.143,23.143,0,0,1-15.163,0Zm80.032.522v-35.3H238.292v-7.2h32.727v7.2H258.783V1362Zm-154.91,0v-35.3H83.382v-7.2H116.11v7.2H103.874V1362Zm-93.246-.028c-38.9,0-70.428-31.267-70.431-69.838s31.53-69.843,70.428-69.845,70.431,31.266,70.434,69.838v0c0,38.572-31.532,69.842-70.428,69.841Zm-4.017-17.413v5.163a4.185,4.185,0,0,0,4.2,4.168,4.186,4.186,0,0,0,4.2-4.168v-5.176a53.174,53.174,0,0,0,30.2-12.407l3.673,3.643a4.227,4.227,0,0,0,5.944,0,4.141,4.141,0,0,0,0-5.893l-3.666-3.637a52.283,52.283,0,0,0,12.584-29.97h5.094a4.169,4.169,0,1,0,0-8.337H55.573a52.269,52.269,0,0,0-12.5-30.1l3.515-3.485a4.145,4.145,0,0,0,0-5.895,4.23,4.23,0,0,0-5.944,0l-3.5,3.474a53.184,53.184,0,0,0-30.387-12.52v-4.846a4.186,4.186,0,0,0-4.2-4.169,4.186,4.186,0,0,0-4.2,4.169v4.847a53.168,53.168,0,0,0-30.4,12.532l-3.469-3.44a4.229,4.229,0,0,0-5.944,0,4.144,4.144,0,0,0,0,5.894l3.484,3.454a52.266,52.266,0,0,0-12.491,30.153h-5a4.186,4.186,0,0,0-4.2,4.168,4.185,4.185,0,0,0,4.2,4.167h5.034a52.279,52.279,0,0,0,12.651,29.99l-3.629,3.6a4.145,4.145,0,0,0,0,5.9,4.227,4.227,0,0,0,5.944,0l3.648-3.618A53.172,53.172,0,0,0-1.586,1344.563ZM146.322,1361.5q-2.567-3.308-5.018-6.677t-4.9-6.851H128.29V1361.5h-8.2v-42.5h19.471a16.263,16.263,0,0,1,6.012,1.074,13.432,13.432,0,0,1,4.662,3.018,13.809,13.809,0,0,1,3.021,4.645,15.681,15.681,0,0,1,1.085,5.894,14.667,14.667,0,0,1-2.435,8.419,13.57,13.57,0,0,1-6.481,5.167q5.4,7.084,10.672,14.282Zm-18.031-20.726h11.263a6.694,6.694,0,0,0,2.3-.437,5.981,5.981,0,0,0,2.13-1.334,7.313,7.313,0,0,0,1.547-2.236,7.461,7.461,0,0,0,.612-3.135,12.484,12.484,0,0,0-.233-2.206,7.229,7.229,0,0,0-.934-2.439,6.019,6.019,0,0,0-1.984-1.973,6.366,6.366,0,0,0-3.443-.814H128.29Zm76.956-28.446q-2.879-3.708-5.624-7.482t-5.493-7.677h-9.09v15.158h-9.185v-47.622h21.818a18.233,18.233,0,0,1,6.737,1.2,15.068,15.068,0,0,1,5.225,3.383,15.49,15.49,0,0,1,3.385,5.2,17.571,17.571,0,0,1,1.215,6.6,16.433,16.433,0,0,1-2.727,9.434,15.191,15.191,0,0,1-7.262,5.789q6.052,7.939,11.959,16Zm-20.207-23.225h12.622a7.528,7.528,0,0,0,2.581-.489,6.712,6.712,0,0,0,2.387-1.5,8.17,8.17,0,0,0,1.733-2.505,8.35,8.35,0,0,0,.687-3.513,13.979,13.979,0,0,0-.262-2.472,8.046,8.046,0,0,0-1.047-2.733,6.74,6.74,0,0,0-2.223-2.211,7.145,7.145,0,0,0-3.857-.912H185.039Zm-53.993,23.225v-47.622h35.361v8.066H140.23v11.906h23.226v8.261H140.23v11.19h26.176v8.2Zm-47.932,0,24.839-39.164h-24.8v-8.393h40.872l-24.763,39.289,23.845-.188v8.457Zm154.76-1.944a23.943,23.943,0,0,1-12.65-12.544,23.351,23.351,0,0,1,0-18.35,23.9,23.9,0,0,1,5.1-7.513,24.2,24.2,0,0,1,7.545-5.06,23.818,23.818,0,0,1,18.473,0,24.206,24.206,0,0,1,7.545,5.06,23.944,23.944,0,0,1,5.1,7.513,23.351,23.351,0,0,1,0,18.35,23.943,23.943,0,0,1-12.65,12.544,23.832,23.832,0,0,1-18.473,0Zm3.393-35.922a15.744,15.744,0,0,0-7.967,8.32,15.174,15.174,0,0,0,0,11.768,16.461,16.461,0,0,0,3.217,4.936,15.556,15.556,0,0,0,4.75,3.415,14.041,14.041,0,0,0,11.684,0,15.556,15.556,0,0,0,4.75-3.415,16.493,16.493,0,0,0,3.218-4.936,15.174,15.174,0,0,0,0-11.768,15.753,15.753,0,0,0-7.968-8.32,14.027,14.027,0,0,0-11.684,0ZM-1.323,1307.413a5.011,5.011,0,0,0-1.8.07,3.751,3.751,0,0,1-2.141-.053c-1.125-.542-1.475-2.305-2.446-3.074s-2.794-.72-3.564-1.683-.321-2.7-.863-3.817-2.2-1.835-2.476-3.054c-.269-1.175.9-2.549.9-3.811s-1.172-2.634-.9-3.812c.28-1.217,1.943-1.951,2.476-3.051.543-1.117.092-2.86.863-3.817s2.6-.919,3.564-1.685,1.318-2.534,2.446-3.071a3.738,3.738,0,0,1,2.143-.055,5.024,5.024,0,0,0,1.8.071c1.189-.268,2.278-1.71,3.549-1.71s2.361,1.441,3.549,1.71a5,5,0,0,0,1.8-.071,3.754,3.754,0,0,1,2.147.055c1.127.536,1.475,2.3,2.446,3.071s2.794.722,3.563,1.682.323,2.7.865,3.818a6.347,6.347,0,0,0,1.463,1.6h17.45a5.632,5.632,0,1,1,0,11.264H17.26a3.281,3.281,0,0,0-.665.859c-.543,1.12-.09,2.855-.865,3.819s-2.6.916-3.562,1.683-1.318,2.537-2.447,3.075a3.757,3.757,0,0,1-2.143.053,5,5,0,0,0-1.8-.07c-1.189.265-2.278,1.708-3.549,1.708S-.134,1307.678-1.323,1307.413Zm84.839-49.373V1221H272.561v37.04Zm21.1-29.1a11.8,11.8,0,0,0-3.675,2.464,11.667,11.667,0,0,0-2.485,3.659,11.372,11.372,0,0,0,0,8.935,11.641,11.641,0,0,0,6.159,6.108,11.6,11.6,0,0,0,8.994,0,11.82,11.82,0,0,0,3.675-2.464,11.689,11.689,0,0,0,2.485-3.644,11.356,11.356,0,0,0,0-8.935,11.644,11.644,0,0,0-2.485-3.659,11.8,11.8,0,0,0-3.675-2.464,11.607,11.607,0,0,0-8.994,0Zm153.462,21.649h.456v-22.1h-4.269v13.365L239.6,1228.483h-.456v22.1h4.269v-13.152Zm-64.153,0h16.433v-3.811H198.192v-5.2h10.794v-3.841H198.192V1232.2h12.166v-3.749H193.924Zm-45.067,0h4.269v-6.592H158.1a11.06,11.06,0,0,0,3.764-.59,7.363,7.363,0,0,0,2.7-1.633,6.915,6.915,0,0,0,1.617-2.435,8.167,8.167,0,0,0,.549-3.023,7.613,7.613,0,0,0-.626-3.068,7.867,7.867,0,0,0-4.207-4.173,7.817,7.817,0,0,0-3.1-.619h-9.94Zm-42.589-4.128a7.56,7.56,0,0,1-2.314-1.662,8,8,0,0,1-1.566-2.4,7.393,7.393,0,0,1,0-5.73,7.677,7.677,0,0,1,3.88-4.053,6.855,6.855,0,0,1,5.689,0,7.681,7.681,0,0,1,3.879,4.053,7.377,7.377,0,0,1,0,5.73,7.975,7.975,0,0,1-1.566,2.4,7.554,7.554,0,0,1-2.312,1.662,6.826,6.826,0,0,1-5.689,0Zm46.858-6.273V1232.2h5.215a3.989,3.989,0,0,1,3.049,1.3,4.017,4.017,0,0,1,.791,1.314,4.282,4.282,0,0,1,.276,1.5,4.932,4.932,0,0,1-.214,1.452,3.646,3.646,0,0,1-.655,1.239,3.072,3.072,0,0,1-1.144.862,3.974,3.974,0,0,1-1.646.317Z" transform="translate(68 -1221)" fill="url(#radial-gradient)"/>
</svg>
